<svg width="31" height="31" viewBox="0 0 31 31" fill="none" xmlns="http://www.w3.org/2000/svg">
<g id="Arrows / right arrow">
<path id="Vector" d="M10.9275 14.5829L18.2383 7.28503C18.3584 7.16396 18.5013 7.06787 18.6587 7.00229C18.8161 6.93672 18.9849 6.90295 19.1554 6.90295C19.3259 6.90295 19.4948 6.93672 19.6522 7.00229C19.8096 7.06787 19.9524 7.16396 20.0725 7.28503C20.3131 7.52704 20.4481 7.85441 20.4481 8.19565C20.4481 8.53689 20.3131 8.86427 20.0725 9.10628L13.6788 15.5646L20.0725 21.9584C20.3131 22.2004 20.4481 22.5277 20.4481 22.869C20.4481 23.2102 20.3131 23.5376 20.0725 23.7796C19.9529 23.9017 19.8102 23.9988 19.6528 24.0653C19.4954 24.1318 19.3263 24.1664 19.1554 24.1671C18.9845 24.1664 18.8155 24.1318 18.6581 24.0653C18.5006 23.9988 18.358 23.9017 18.2383 23.7796L10.9275 16.4817C10.7964 16.3607 10.6918 16.2139 10.6202 16.0505C10.5486 15.8871 10.5117 15.7107 10.5117 15.5323C10.5117 15.3539 10.5486 15.1775 10.6202 15.0141C10.6918 14.8507 10.7964 14.7039 10.9275 14.5829V14.5829Z" fill="white"/>
</g>
</svg>
