<svg width="18" height="18" viewBox="0 0 18 18" fill="none" xmlns="http://www.w3.org/2000/svg">
<g id="Arrows / down arrow">
<path id="Vector" d="M6.87752 5.24998C6.73783 5.3905 6.65942 5.58059 6.65942 5.77873C6.65942 5.97687 6.73783 6.16696 6.87752 6.30748L9.53252 8.99998L6.87752 11.655C6.73783 11.7955 6.65942 11.9856 6.65942 12.1837C6.65942 12.3819 6.73783 12.572 6.87752 12.7125C6.94724 12.7828 7.03019 12.8386 7.12159 12.8766C7.21298 12.9147 7.31101 12.9343 7.41002 12.9343C7.50903 12.9343 7.60706 12.9147 7.69845 12.8766C7.78985 12.8386 7.8728 12.7828 7.94252 12.7125L11.1225 9.53248C11.1928 9.46276 11.2486 9.3798 11.2867 9.28841C11.3248 9.19702 11.3444 9.09899 11.3444 8.99998C11.3444 8.90097 11.3248 8.80294 11.2867 8.71154C11.2486 8.62015 11.1928 8.5372 11.1225 8.46748L7.94252 5.24998C7.8728 5.17968 7.78985 5.12389 7.69845 5.08581C7.60706 5.04773 7.50903 5.02813 7.41002 5.02813C7.31101 5.02813 7.21298 5.04773 7.12159 5.08581C7.03019 5.12389 6.94724 5.17968 6.87752 5.24998Z" fill="white"/>
</g>
</svg>
