<svg width="15" height="15" viewBox="0 0 15 15" fill="none" xmlns="http://www.w3.org/2000/svg">
<g id="User Interface / Medium Volume">
<path id="Vector" d="M7.76875 2.56249C7.66725 2.51858 7.55592 2.50238 7.44612 2.51556C7.33632 2.52874 7.23198 2.57081 7.14375 2.63749L4.15625 4.99999H1.875C1.70924 4.99999 1.55027 5.06584 1.43306 5.18305C1.31585 5.30026 1.25 5.45923 1.25 5.62499V9.37499C1.25 9.54075 1.31585 9.69972 1.43306 9.81693C1.55027 9.93414 1.70924 9.99999 1.875 9.99999H4.15625L7.1125 12.3625C7.22246 12.4507 7.35902 12.4992 7.5 12.5C7.59336 12.5015 7.68565 12.4801 7.76875 12.4375C7.87511 12.3868 7.96498 12.3072 8.02801 12.2076C8.09105 12.1081 8.12467 11.9928 8.125 11.875V3.12499C8.12467 3.00719 8.09105 2.89187 8.02801 2.79235C7.96498 2.69283 7.87511 2.61314 7.76875 2.56249V2.56249ZM6.875 10.575L4.7625 8.88749C4.65254 8.79927 4.51598 8.75081 4.375 8.74999H2.5V6.24999H4.375C4.51598 6.24917 4.65254 6.20072 4.7625 6.11249L6.875 4.42499V10.575ZM12.2875 3.96249C12.1698 3.8448 12.0102 3.77868 11.8438 3.77868C11.6773 3.77868 11.5177 3.8448 11.4 3.96249C11.2823 4.08018 11.2162 4.2398 11.2162 4.40624C11.2162 4.57268 11.2823 4.7323 11.4 4.84999C11.768 5.21745 12.0556 5.65745 12.2445 6.14202C12.4333 6.6266 12.5193 7.14516 12.4969 7.66475C12.4746 8.18434 12.3444 8.69361 12.1147 9.16019C11.885 9.62677 11.5607 10.0405 11.1625 10.375C11.0658 10.4577 10.9966 10.5679 10.9642 10.691C10.9319 10.814 10.9378 10.944 10.9813 11.0636C11.0248 11.1832 11.1037 11.2867 11.2076 11.3602C11.3114 11.4337 11.4353 11.4737 11.5625 11.475C11.7085 11.4753 11.8501 11.4244 11.9625 11.3312C12.4943 10.8858 12.9277 10.3346 13.2349 9.71257C13.5422 9.09059 13.7166 8.41147 13.7472 7.71841C13.7778 7.02535 13.6638 6.33351 13.4125 5.68689C13.1612 5.04027 12.7781 4.45302 12.2875 3.96249V3.96249ZM10.5187 5.73124C10.4605 5.67297 10.3913 5.62674 10.3152 5.5952C10.239 5.56366 10.1574 5.54743 10.075 5.54743C9.99259 5.54743 9.91098 5.56366 9.83484 5.5952C9.75871 5.62674 9.68952 5.67297 9.63125 5.73124C9.57298 5.78951 9.52675 5.8587 9.49521 5.93483C9.46367 6.01097 9.44744 6.09258 9.44744 6.17499C9.44744 6.2574 9.46367 6.33901 9.49521 6.41515C9.52675 6.49128 9.57298 6.56047 9.63125 6.61874C9.86599 6.85208 9.9986 7.169 10 7.49999C10.0001 7.68208 9.96051 7.86201 9.88386 8.02718C9.80721 8.19236 9.6954 8.33879 9.55625 8.45624C9.49296 8.50871 9.44065 8.57315 9.4023 8.64586C9.36396 8.71858 9.34034 8.79815 9.33279 8.88001C9.32524 8.96187 9.33392 9.04441 9.35832 9.12292C9.38272 9.20142 9.42237 9.27433 9.475 9.33749C9.52791 9.40032 9.59268 9.45211 9.66562 9.48989C9.73856 9.52767 9.81823 9.5507 9.90008 9.55766C9.98192 9.56463 10.0643 9.55539 10.1426 9.53048C10.2209 9.50557 10.2935 9.46548 10.3562 9.41249C10.6357 9.17819 10.8605 8.88558 11.0149 8.5552C11.1693 8.22482 11.2495 7.86467 11.25 7.49999C11.2465 6.83756 10.984 6.20277 10.5187 5.73124V5.73124Z" fill="#121212"/>
</g>
</svg>
