<svg width="43" height="43" viewBox="0 0 43 43" fill="none" xmlns="http://www.w3.org/2000/svg">
<g id="Education / book">
<path id="Vector" d="M30.4583 3.58333H8.95829C8.48311 3.58333 8.0274 3.77209 7.69139 4.1081C7.35539 4.4441 7.16663 4.89982 7.16663 5.37499V34.0417C7.16663 34.5168 7.35539 34.9726 7.69139 35.3086C8.0274 35.6446 8.48311 35.8333 8.95829 35.8333H10.75V37.625C10.75 38.1002 10.9387 38.5559 11.2747 38.8919C11.6107 39.2279 12.0664 39.4167 12.5416 39.4167C13.0168 39.4167 13.4725 39.2279 13.8085 38.8919C14.1445 38.5559 14.3333 38.1002 14.3333 37.625V35.8333H30.4583C31.8838 35.8333 33.251 35.267 34.259 34.259C35.267 33.251 35.8333 31.8839 35.8333 30.4583V8.95833C35.8333 7.53279 35.267 6.16564 34.259 5.15763C33.251 4.14962 31.8838 3.58333 30.4583 3.58333ZM25.0833 32.25H10.75V7.16666H25.0833V32.25ZM32.25 30.4583C32.25 30.9335 32.0612 31.3892 31.7252 31.7252C31.3892 32.0612 30.9335 32.25 30.4583 32.25H28.6666V7.16666H30.4583C30.9335 7.16666 31.3892 7.35543 31.7252 7.69143C32.0612 8.02743 32.25 8.48315 32.25 8.95833V30.4583Z" fill="#225DA3"/>
</g>
</svg>
