<svg width="43" height="43" viewBox="0 0 43 43" fill="none" xmlns="http://www.w3.org/2000/svg">
<g id="Education / bookmark in book">
<path id="Vector" d="M37.625 10.75C37.1499 10.75 36.6941 10.9388 36.3581 11.2748C36.0221 11.6108 35.8334 12.0665 35.8334 12.5417V30.4583C35.8334 31.8839 35.2671 33.251 34.2591 34.259C33.2511 35.267 31.8839 35.8333 30.4584 35.8333H12.5417C12.0665 35.8333 11.6108 36.0221 11.2748 36.3581C10.9388 36.6941 10.75 37.1498 10.75 37.625C10.75 38.1002 10.9388 38.5559 11.2748 38.8919C11.6108 39.2279 12.0665 39.4167 12.5417 39.4167H30.4584C32.8343 39.4167 35.1129 38.4728 36.7929 36.7928C38.4729 35.1128 39.4167 32.8342 39.4167 30.4583V12.5417C39.4167 12.0665 39.2279 11.6108 38.8919 11.2748C38.5559 10.9388 38.1002 10.75 37.625 10.75ZM32.25 26.875V8.95833C32.25 7.53279 31.6837 6.16564 30.6757 5.15763C29.6677 4.14962 28.3006 3.58333 26.875 3.58333H8.95837C7.53284 3.58333 6.16568 4.14962 5.15768 5.15763C4.14967 6.16564 3.58337 7.53279 3.58337 8.95833V26.875C3.58337 28.3005 4.14967 29.6677 5.15768 30.6757C6.16568 31.6837 7.53284 32.25 8.95837 32.25H26.875C28.3006 32.25 29.6677 31.6837 30.6757 30.6757C31.6837 29.6677 32.25 28.3005 32.25 26.875V26.875ZM17.9167 7.16666H21.5V15.8742L20.855 15.3367C20.5331 15.0685 20.1274 14.9217 19.7084 14.9217C19.2894 14.9217 18.8836 15.0685 18.5617 15.3367L17.9167 15.8742V7.16666ZM7.16671 26.875V8.95833C7.16671 8.48315 7.35547 8.02743 7.69147 7.69143C8.02748 7.35543 8.48319 7.16666 8.95837 7.16666H14.3334V19.7083C14.3334 20.0508 14.4315 20.3862 14.6162 20.6746C14.8009 20.963 15.0644 21.1925 15.3755 21.3358C15.6866 21.4791 16.0322 21.5302 16.3715 21.4831C16.7107 21.436 17.0293 21.2926 17.2896 21.07L19.7084 19.0454L22.1271 21.07C22.4517 21.3475 22.8647 21.5 23.2917 21.5C23.5509 21.4982 23.807 21.4433 24.0442 21.3387C24.3552 21.1948 24.6184 20.9647 24.8026 20.6757C24.9868 20.3868 25.0842 20.051 25.0834 19.7083V7.16666H26.875C27.3502 7.16666 27.8059 7.35543 28.1419 7.69143C28.4779 8.02743 28.6667 8.48315 28.6667 8.95833V26.875C28.6667 27.3502 28.4779 27.8059 28.1419 28.1419C27.8059 28.4779 27.3502 28.6667 26.875 28.6667H8.95837C8.48319 28.6667 8.02748 28.4779 7.69147 28.1419C7.35547 27.8059 7.16671 27.3502 7.16671 26.875Z" fill="#225DA3"/>
</g>
</svg>
