<svg width="30" height="30" viewBox="0 0 30 30" fill="none" xmlns="http://www.w3.org/2000/svg">
<path d="M21.5729 3.45679H21.1346V6.74038C21.1346 6.89578 21.1964 7.04482 21.3063 7.1547C21.4162 7.26459 21.5652 7.32632 21.7206 7.32632H24.8542V6.84585L24.1839 6.15444H22.3065V4.21382L21.5729 3.45679ZM18.8924 21.6797V13.943C18.8924 13.7876 18.8307 13.6385 18.7208 13.5286C18.6109 13.4188 18.4618 13.357 18.3064 13.357H3.97559C3.82019 13.357 3.67115 13.4188 3.56127 13.5286C3.45138 13.6385 3.38965 13.7876 3.38965 13.943V21.6797C3.38965 21.8351 3.45138 21.9841 3.56127 22.094C3.67115 22.2039 3.82019 22.2656 3.97559 22.2656H18.3064C18.4618 22.2656 18.6109 22.2039 18.7208 22.094C18.8307 21.9841 18.8924 21.8351 18.8924 21.6797ZM17.7205 21.0937H4.56152V14.5289H17.7205V21.0937Z" fill="black"/>
<path d="M26.4463 5.96485L22.49 1.87735C22.4354 1.82071 22.3698 1.77574 22.2973 1.74512C22.2248 1.71451 22.1469 1.6989 22.0682 1.69922H6.8877C6.7323 1.69922 6.58326 1.76096 6.47337 1.87084C6.36349 1.98073 6.30176 2.12976 6.30176 2.28516V12.7711H7.47363V2.8711H21.8204L25.4392 6.60938V27.1289H7.47363V22.8516H6.30176V27.7148C6.30176 27.8702 6.36349 28.0193 6.47337 28.1292C6.58326 28.2391 6.7323 28.3008 6.8877 28.3008H26.0244C26.1798 28.3008 26.3288 28.2391 26.4387 28.1292C26.5486 28.0193 26.6104 27.8702 26.6104 27.7148V6.37266C26.6104 6.22063 26.5516 6.07448 26.4463 5.96485Z" fill="black"/>
<path d="M9.83722 19.7578C10.181 19.9544 10.5711 20.0555 10.9671 20.0506C12.0964 20.0506 12.6019 19.3444 12.6019 18.6443C12.6019 17.7968 11.9818 17.449 11.442 17.2399C10.9385 17.0452 10.9385 16.9519 10.9385 16.8614C10.9385 16.7379 11.0651 16.6638 11.2772 16.6638C11.4611 16.6633 11.6423 16.7083 11.8046 16.7949C11.8496 16.8195 11.8995 16.8339 11.9507 16.8372C12.0019 16.8404 12.0532 16.8324 12.101 16.8138C12.1488 16.7951 12.1919 16.7662 12.2274 16.7291C12.2628 16.692 12.2897 16.6475 12.3061 16.5989L12.4367 16.2131C12.4628 16.1357 12.4612 16.0516 12.4321 15.9753C12.403 15.8989 12.3481 15.8351 12.2771 15.7948C11.9731 15.6381 11.6345 15.5606 11.2927 15.5695C10.4021 15.5695 9.75589 16.1358 9.75589 16.9158C9.75589 17.5418 10.1602 18.0028 10.9491 18.2824C11.4139 18.4613 11.4139 18.5735 11.4139 18.6825C11.4139 18.9087 11.1882 18.956 10.9988 18.956C10.7648 18.9535 10.5357 18.8888 10.335 18.7685C10.2892 18.7403 10.2374 18.7229 10.1838 18.7179C10.1302 18.7128 10.0761 18.7201 10.0258 18.7392C9.97541 18.7584 9.93013 18.7888 9.89341 18.8283C9.8567 18.8677 9.82954 18.915 9.81402 18.9666L9.69449 19.3631C9.67268 19.4355 9.67478 19.513 9.70049 19.5841C9.72621 19.6552 9.77415 19.7161 9.83722 19.7578ZM7.45574 20.0517C7.84151 20.0627 8.22515 19.9908 8.58074 19.8408C8.65283 19.8048 8.71036 19.745 8.74369 19.6717C8.77701 19.5983 8.78411 19.5157 8.76378 19.4377L8.66605 19.0627C8.65296 19.0123 8.62886 18.9655 8.59549 18.9256C8.56211 18.8857 8.5203 18.8537 8.47306 18.8319C8.42582 18.8101 8.37433 18.799 8.3223 18.7996C8.27028 18.8001 8.21902 18.8121 8.17222 18.8349C7.9763 18.9158 7.76588 18.9557 7.55394 18.952C6.63495 18.952 6.49761 18.2489 6.49761 17.8303C6.49761 17.0932 6.89042 16.6709 7.57574 16.6709C7.77722 16.6672 7.9771 16.7072 8.16167 16.7881C8.20758 16.8103 8.25778 16.8223 8.3088 16.8232C8.35981 16.8242 8.41041 16.814 8.45709 16.7934C8.50377 16.7728 8.5454 16.7422 8.57909 16.7039C8.61279 16.6656 8.63774 16.6204 8.65222 16.5715L8.76636 16.1857C8.78953 16.1075 8.78481 16.0237 8.753 15.9487C8.72119 15.8736 8.66427 15.8119 8.59199 15.7742C8.26859 15.6263 7.91488 15.5567 7.55956 15.5712C7.25765 15.5579 6.9563 15.6078 6.67477 15.7177C6.39324 15.8275 6.13773 15.9949 5.92456 16.2091C5.71139 16.4233 5.54526 16.6796 5.43678 16.9617C5.3283 17.2438 5.27986 17.5454 5.29456 17.8472C5.29386 19.1656 6.16269 20.0517 7.45574 20.0517ZM14.4713 19.7522C14.4943 19.8227 14.539 19.8841 14.5991 19.9276C14.6591 19.9711 14.7314 19.9946 14.8055 19.9945H15.3275C15.4001 19.9944 15.4709 19.9718 15.5301 19.9299C15.5894 19.8879 15.6342 19.8286 15.6584 19.7602L16.969 16.0976C16.9878 16.0446 16.9935 15.9879 16.9858 15.9322C16.9781 15.8766 16.9572 15.8235 16.9248 15.7776C16.8923 15.7317 16.8494 15.6943 16.7995 15.6684C16.7496 15.6425 16.6943 15.6289 16.6381 15.6288H16.1318C16.0585 15.6288 15.9871 15.6518 15.9275 15.6944C15.8678 15.737 15.823 15.7972 15.7993 15.8665L15.1791 17.6773C15.1533 17.7534 15.1264 17.8317 15.0999 17.9116C15.0761 17.8359 15.0516 17.7584 15.0263 17.6791L14.4553 15.8745C14.4328 15.8032 14.3882 15.741 14.3279 15.6968C14.2677 15.6527 14.1949 15.6289 14.1202 15.6288H13.6093C13.5537 15.6288 13.499 15.642 13.4495 15.6672C13.4 15.6924 13.3572 15.729 13.3246 15.774C13.292 15.8189 13.2705 15.871 13.2619 15.9258C13.2533 15.9807 13.2578 16.0368 13.275 16.0896L14.4713 19.7522Z" fill="black"/>
</svg>
