<svg width="43" height="43" viewBox="0 0 43 43" fill="none" xmlns="http://www.w3.org/2000/svg">
<g id="Education / open book">
<path id="Vector" d="M37.9296 3.69083C36.6453 3.46962 35.3448 3.35575 34.0417 3.35041C29.5954 3.34677 25.2419 4.62173 21.5 7.02333C17.7485 4.65326 13.3957 3.40959 8.95834 3.43999C7.65517 3.44533 6.3547 3.5592 5.07043 3.78041C4.64975 3.85293 4.2688 4.07327 3.99617 4.40175C3.72353 4.73022 3.57714 5.14524 3.58334 5.57208V27.0721C3.57951 27.3353 3.63374 27.5962 3.74217 27.8361C3.85061 28.076 4.01059 28.2891 4.21074 28.4602C4.41088 28.6312 4.64626 28.7561 4.90014 28.8258C5.15401 28.8956 5.42014 28.9085 5.67959 28.8637C8.24709 28.4192 10.8776 28.493 13.4161 29.0807C15.9547 29.6684 18.3499 30.7582 20.4608 32.2858L20.6758 32.4112H20.8729C21.0716 32.494 21.2848 32.5367 21.5 32.5367C21.7153 32.5367 21.9284 32.494 22.1271 32.4112H22.3242L22.5392 32.2858C24.6353 30.724 27.0237 29.5989 29.5628 28.9773C32.1018 28.3556 34.7398 28.25 37.3204 28.6667C37.5799 28.7114 37.846 28.6985 38.0999 28.6287C38.3538 28.559 38.5891 28.4341 38.7893 28.2631C38.9894 28.092 39.1494 27.8789 39.2578 27.639C39.3663 27.3991 39.4205 27.1382 39.4167 26.875V5.37499C39.398 4.96677 39.2404 4.57718 38.9699 4.27086C38.6994 3.96453 38.3324 3.75987 37.9296 3.69083ZM19.7083 27.5021C16.3936 25.7582 12.7039 24.8481 8.95834 24.8504C8.36709 24.8504 7.77584 24.8504 7.16668 24.8504V6.93374C7.7634 6.89935 8.36162 6.89935 8.95834 6.93374C12.7807 6.92952 16.5196 8.05119 19.7083 10.1587V27.5021ZM35.8333 24.9221C35.2242 24.9221 34.6329 24.9221 34.0417 24.9221C30.2962 24.9198 26.6065 25.8299 23.2917 27.5737V10.1587C26.4805 8.05119 30.2194 6.92952 34.0417 6.93374C34.6384 6.89935 35.2366 6.89935 35.8333 6.93374V24.9221ZM37.9296 32.3575C36.6453 32.1363 35.3448 32.0224 34.0417 32.0171C29.5954 32.0134 25.2419 33.2884 21.5 35.69C17.7581 33.2884 13.4046 32.0134 8.95834 32.0171C7.65517 32.0224 6.3547 32.1363 5.07043 32.3575C4.8372 32.3945 4.61359 32.4773 4.41246 32.601C4.21133 32.7247 4.03664 32.887 3.89844 33.0785C3.76024 33.27 3.66125 33.4869 3.60718 33.7167C3.5531 33.9466 3.545 34.1849 3.58334 34.4179C3.67439 34.8832 3.94614 35.2934 4.33905 35.5587C4.73196 35.824 5.21401 35.9227 5.67959 35.8333C8.24709 35.3888 10.8776 35.4625 13.4161 36.0503C15.9547 36.638 18.3499 37.7278 20.4608 39.2554C20.7643 39.4715 21.1275 39.5876 21.5 39.5876C21.8725 39.5876 22.2357 39.4715 22.5392 39.2554C24.6501 37.7278 27.0453 36.638 29.5839 36.0503C32.1224 35.4625 34.7529 35.3888 37.3204 35.8333C37.786 35.9227 38.2681 35.824 38.661 35.5587C39.0539 35.2934 39.3256 34.8832 39.4167 34.4179C39.455 34.1849 39.4469 33.9466 39.3928 33.7167C39.3388 33.4869 39.2398 33.27 39.1016 33.0785C38.9634 32.887 38.7887 32.7247 38.5876 32.601C38.3864 32.4773 38.1628 32.3945 37.9296 32.3575V32.3575Z" fill="#225DA3"/>
</g>
</svg>
