<svg width="15" height="15" viewBox="0 0 15 15" fill="none" xmlns="http://www.w3.org/2000/svg">
<g id="Photography / eye">
<path id="Vector" d="M13.7 7.25C12.4375 4.31875 10.0625 2.5 7.49998 2.5C4.93748 2.5 2.56248 4.31875 1.29998 7.25C1.26557 7.32885 1.2478 7.41396 1.2478 7.5C1.2478 7.58604 1.26557 7.67115 1.29998 7.75C2.56248 10.6812 4.93748 12.5 7.49998 12.5C10.0625 12.5 12.4375 10.6812 13.7 7.75C13.7344 7.67115 13.7522 7.58604 13.7522 7.5C13.7522 7.41396 13.7344 7.32885 13.7 7.25V7.25ZM7.49998 11.25C5.51873 11.25 3.64373 9.81875 2.56248 7.5C3.64373 5.18125 5.51873 3.75 7.49998 3.75C9.48123 3.75 11.3562 5.18125 12.4375 7.5C11.3562 9.81875 9.48123 11.25 7.49998 11.25ZM7.49998 5C7.00553 5 6.52218 5.14662 6.11106 5.42133C5.69993 5.69603 5.3795 6.08648 5.19028 6.54329C5.00106 7.00011 4.95155 7.50277 5.04802 7.98773C5.14448 8.47268 5.38258 8.91814 5.73221 9.26777C6.08184 9.6174 6.5273 9.8555 7.01225 9.95196C7.49721 10.0484 7.99987 9.99892 8.45669 9.8097C8.9135 9.62048 9.30395 9.30005 9.57865 8.88893C9.85336 8.4778 9.99998 7.99445 9.99998 7.5C9.99998 6.83696 9.73659 6.20107 9.26775 5.73223C8.79891 5.26339 8.16302 5 7.49998 5V5ZM7.49998 8.75C7.25275 8.75 7.01108 8.67669 6.80552 8.53934C6.59996 8.40199 6.43974 8.20676 6.34513 7.97835C6.25052 7.74995 6.22577 7.49861 6.274 7.25614C6.32223 7.01366 6.44128 6.79093 6.6161 6.61612C6.79091 6.4413 7.01364 6.32225 7.25612 6.27402C7.49859 6.22579 7.74993 6.25054 7.97833 6.34515C8.20674 6.43976 8.40197 6.59998 8.53932 6.80554C8.67667 7.0111 8.74998 7.25277 8.74998 7.5C8.74998 7.83152 8.61828 8.14946 8.38386 8.38388C8.14944 8.6183 7.8315 8.75 7.49998 8.75Z" fill="#121212"/>
</g>
</svg>
