<svg width="14" height="14" viewBox="0 0 14 14" fill="none" xmlns="http://www.w3.org/2000/svg">
<g id="Brands / facebook">
<path id="Vector" d="M12.1916 1.16663H1.80829C1.63811 1.16663 1.4749 1.23423 1.35457 1.35457C1.23423 1.4749 1.16663 1.63811 1.16663 1.80829V12.1916C1.16663 12.2759 1.18322 12.3593 1.21547 12.4372C1.24772 12.515 1.29498 12.5858 1.35457 12.6454C1.41415 12.7049 1.48489 12.7522 1.56274 12.7844C1.64059 12.8167 1.72403 12.8333 1.80829 12.8333H7.39663V8.31246H5.87996V6.56246H7.39663V5.24996C7.36521 4.94182 7.40159 4.63053 7.50321 4.33794C7.60483 4.04535 7.76924 3.77853 7.9849 3.5562C8.20056 3.33387 8.46224 3.16142 8.75161 3.05093C9.04097 2.94045 9.351 2.89461 9.65996 2.91663C10.114 2.91383 10.5678 2.9372 11.0191 2.98663V4.56163H10.0916C9.35663 4.56163 9.21663 4.91163 9.21663 5.41913V6.54496H10.9666L10.7391 8.29496H9.21663V12.8333H12.1916C12.2759 12.8333 12.3593 12.8167 12.4372 12.7844C12.515 12.7522 12.5858 12.7049 12.6454 12.6454C12.7049 12.5858 12.7522 12.515 12.7844 12.4372C12.8167 12.3593 12.8333 12.2759 12.8333 12.1916V1.80829C12.8333 1.72403 12.8167 1.64059 12.7844 1.56274C12.7522 1.48489 12.7049 1.41415 12.6454 1.35457C12.5858 1.29498 12.515 1.24772 12.4372 1.21547C12.3593 1.18322 12.2759 1.16663 12.1916 1.16663V1.16663Z" fill="#121212"/>
</g>
</svg>
