<svg width="30" height="30" viewBox="0 0 30 30" fill="none" xmlns="http://www.w3.org/2000/svg">
<path d="M21.8061 3.45703H21.3679V6.74063C21.3679 6.89603 21.4296 7.04506 21.5395 7.15495C21.6494 7.26483 21.7984 7.32656 21.9538 7.32656H25.0874V6.84609L24.4171 6.15469H22.5397V4.21406L21.8061 3.45703ZM21.4705 21.6797V13.943C21.4705 13.7876 21.4088 13.6385 21.2989 13.5286C21.189 13.4188 21.04 13.357 20.8846 13.357H3.74121C3.58581 13.357 3.43678 13.4188 3.32689 13.5286C3.21701 13.6385 3.15527 13.7876 3.15527 13.943V21.6797C3.15527 21.8351 3.21701 21.9841 3.32689 22.094C3.43678 22.2039 3.58581 22.2656 3.74121 22.2656H20.8846C21.04 22.2656 21.189 22.2039 21.2989 22.094C21.4088 21.9841 21.4705 21.8351 21.4705 21.6797ZM20.2986 21.0938H4.32715V14.5289H20.2986V21.0938Z" fill="black"/>
<path d="M26.6807 5.96485L22.7244 1.87735C22.6698 1.82071 22.6042 1.77574 22.5317 1.74512C22.4592 1.71451 22.3812 1.6989 22.3025 1.69922H7.12207C6.96667 1.69922 6.81763 1.76096 6.70775 1.87084C6.59787 1.98073 6.53613 2.12976 6.53613 2.28516V12.7711H7.70801V2.8711H22.0548L25.6736 6.60938V27.1289H7.70801V22.8516H6.53613V27.7148C6.53613 27.8702 6.59787 28.0193 6.70775 28.1292C6.81763 28.2391 6.96667 28.3008 7.12207 28.3008H26.2588C26.4142 28.3008 26.5632 28.2391 26.6731 28.1292C26.783 28.0193 26.8447 27.8702 26.8447 27.7148V6.37266C26.8448 6.22063 26.786 6.07448 26.6807 5.96485Z" fill="black"/>
<path d="M5.83983 19.9111C6.04462 19.9859 6.26095 20.0242 6.47897 20.0243C7.02436 20.0243 7.93936 19.8133 7.93936 18.4008V15.9494C7.93936 15.8562 7.90232 15.7668 7.83639 15.7009C7.77046 15.6349 7.68104 15.5979 7.5878 15.5979H7.11483C7.02159 15.5979 6.93217 15.6349 6.86624 15.7009C6.80031 15.7668 6.76327 15.8562 6.76327 15.9494V18.3635C6.76327 18.9199 6.62804 18.9199 6.44054 18.9199C6.34878 18.9204 6.25767 18.9045 6.17147 18.873C6.12319 18.8542 6.07135 18.8463 6.01966 18.8499C5.96797 18.8535 5.9177 18.8684 5.87246 18.8937C5.82722 18.9189 5.78813 18.9539 5.75797 18.996C5.72782 19.0382 5.70735 19.0864 5.69804 19.1374L5.62772 19.5232C5.61335 19.6024 5.62657 19.6841 5.66518 19.7547C5.70378 19.8252 5.76543 19.8805 5.83983 19.9111ZM15.9013 19.9945H16.3466C16.4399 19.9945 16.5293 19.9575 16.5952 19.8916C16.6612 19.8256 16.6982 19.7362 16.6982 19.643V17.948L16.7123 17.9702L17.8755 19.8295C17.9072 19.8798 17.9511 19.9213 18.0032 19.95C18.0553 19.9787 18.1139 19.9937 18.1733 19.9936H18.6517C18.7449 19.9936 18.8344 19.9565 18.9003 19.8906C18.9662 19.8247 19.0033 19.7353 19.0033 19.642V15.9792C19.0033 15.886 18.9662 15.7965 18.9003 15.7306C18.8344 15.6647 18.7449 15.6276 18.6517 15.6276H18.2064C18.1132 15.6276 18.0237 15.6647 17.9578 15.7306C17.8919 15.7965 17.8548 15.886 17.8548 15.9792V17.5905L16.7151 15.791C16.6834 15.7408 16.6396 15.6994 16.5876 15.6707C16.5356 15.642 16.4772 15.627 16.4179 15.6269H15.9023C15.809 15.6269 15.7196 15.664 15.6537 15.7299C15.5877 15.7958 15.5507 15.8853 15.5507 15.9785V19.643C15.5507 19.736 15.5876 19.8253 15.6533 19.8912C15.7191 19.9571 15.8082 19.9943 15.9013 19.9945ZM13.2885 20.0545C14.3104 20.0545 15.3416 19.3491 15.3416 17.7733C15.3416 16.4749 14.5197 15.5681 13.3431 15.5681C12.1344 15.5681 11.29 16.504 11.29 17.8441C11.2909 19.1454 12.1129 20.0545 13.2885 20.0545ZM13.3213 16.6561C13.9677 16.6561 14.1383 17.4005 14.1383 17.794C14.1383 18.3766 13.8841 18.9644 13.3157 18.9644C12.7532 18.9644 12.4987 18.3785 12.4987 17.8319C12.4987 17.2854 12.7152 16.657 13.3223 16.657L13.3213 16.6561ZM8.36124 19.7578C8.70506 19.9549 9.09536 20.0564 9.49163 20.0517C10.6208 20.0517 11.1264 19.3455 11.1264 18.6455C11.1264 17.798 10.5062 17.4501 9.96647 17.2411C9.46304 17.0463 9.46303 16.953 9.46303 16.8626C9.46303 16.7391 9.5896 16.665 9.80171 16.665C9.98561 16.6644 10.1668 16.7094 10.3291 16.796C10.3741 16.8206 10.424 16.835 10.4752 16.8383C10.5264 16.8416 10.5777 16.8336 10.6255 16.8149C10.6733 16.7963 10.7164 16.7673 10.7519 16.7302C10.7873 16.6931 10.8142 16.6487 10.8306 16.6001L10.9612 16.2143C10.9873 16.1369 10.9857 16.0528 10.9566 15.9764C10.9274 15.9001 10.8726 15.8362 10.8016 15.7959C10.4976 15.6392 10.159 15.5618 9.81718 15.5707C8.92655 15.5707 8.28038 16.1369 8.28038 16.9169C8.28038 17.543 8.68468 18.004 9.47358 18.2836C9.93835 18.4624 9.93835 18.5747 9.93835 18.6837C9.93835 18.9098 9.71264 18.9572 9.52327 18.9572C9.28931 18.9546 9.06023 18.8899 8.85952 18.7697C8.81366 18.7414 8.76191 18.7241 8.70829 18.719C8.65467 18.7139 8.60059 18.7213 8.55024 18.7404C8.49989 18.7595 8.45461 18.79 8.4179 18.8294C8.38119 18.8688 8.35402 18.9161 8.3385 18.9677L8.21897 19.3643C8.19739 19.4365 8.19957 19.5137 8.22518 19.5845C8.2508 19.6554 8.29849 19.7161 8.36124 19.7578Z" fill="black"/>
</svg>
