<svg width="14" height="14" viewBox="0 0 14 14" fill="none" xmlns="http://www.w3.org/2000/svg">
<g id="Brands / telegram">
<path id="Vector" d="M12.9877 1.4162C12.8216 1.27803 12.6211 1.18748 12.4077 1.15417C12.1942 1.12087 11.9757 1.14607 11.7754 1.22708L1.32155 5.4477C1.09799 5.53968 0.907688 5.69748 0.775904 5.90015C0.644119 6.10281 0.577085 6.34076 0.583698 6.58242C0.590312 6.82407 0.67026 7.058 0.812932 7.25316C0.955605 7.44831 1.15425 7.59546 1.38251 7.67508L3.49709 8.41051L4.67572 12.3081C4.69174 12.3602 4.71498 12.4098 4.74477 12.4554C4.7493 12.4624 4.75567 12.4676 4.76048 12.4744C4.7949 12.5224 4.8365 12.5648 4.88381 12.6002C4.89727 12.6105 4.91016 12.6201 4.92454 12.6292C4.97992 12.666 5.04125 12.6928 5.1058 12.7086L5.11271 12.7092L5.11662 12.7109C5.15543 12.7188 5.19494 12.7228 5.23454 12.7228C5.23835 12.7228 5.24173 12.721 5.24551 12.7209C5.30528 12.7199 5.36453 12.7096 5.42114 12.6904C5.43432 12.6859 5.4456 12.6784 5.45838 12.673C5.5006 12.6555 5.54061 12.6331 5.57755 12.6062C5.60714 12.5813 5.63674 12.5563 5.66635 12.5314L7.24261 10.7911L9.5936 12.6123C9.80058 12.7735 10.0553 12.861 10.3176 12.8613C10.5925 12.8609 10.8589 12.7661 11.0721 12.5927C11.2854 12.4192 11.4325 12.1778 11.4889 11.9088L13.3921 2.56579C13.4352 2.3555 13.4204 2.13745 13.3491 1.93496C13.2779 1.73247 13.153 1.55316 12.9877 1.4162V1.4162ZM5.46585 8.59622C5.38496 8.67678 5.32967 8.77944 5.30691 8.89131L5.12636 9.76864L4.66899 8.25602L7.04039 7.02113L5.46585 8.59622ZM10.3085 11.69L7.5303 9.53785C7.41406 9.44803 7.26826 9.40531 7.12193 9.41819C6.9756 9.43107 6.8395 9.49861 6.74074 9.60735L6.23592 10.1645L6.41433 9.29745L10.5461 5.1657C10.6447 5.06721 10.7048 4.93666 10.7155 4.79769C10.7261 4.65872 10.6867 4.52053 10.6042 4.40814C10.5218 4.29575 10.4018 4.2166 10.2661 4.18502C10.1303 4.15345 9.98776 4.17154 9.8642 4.23601L3.93445 7.32338L1.76191 6.52835L12.2494 2.33278L10.3085 11.69Z" fill="#121212"/>
</g>
</svg>
