<svg width="15" height="14" viewBox="0 0 15 14" fill="none" xmlns="http://www.w3.org/2000/svg">
<g id="Brands / twitter">
<path id="Vector" d="M13.75 3.38333C13.2802 3.57356 12.7834 3.6993 12.275 3.75667C12.8114 3.4576 13.2133 2.98712 13.4063 2.4325C12.9022 2.71254 12.3505 2.90984 11.775 3.01583C11.3903 2.6265 10.8781 2.36734 10.3186 2.279C9.75916 2.19065 9.18409 2.27813 8.68362 2.52769C8.18315 2.77726 7.78558 3.17481 7.55328 3.65799C7.32097 4.14117 7.26706 4.68264 7.4 5.1975C6.38089 5.14939 5.38403 4.90172 4.47416 4.47059C3.56429 4.03945 2.76178 3.43449 2.11875 2.695C1.89321 3.0626 1.7747 3.4789 1.775 3.9025C1.7742 4.29589 1.87764 4.68336 2.0761 5.03041C2.27456 5.37747 2.56189 5.67333 2.9125 5.89167C2.50499 5.88132 2.10618 5.77926 1.75 5.59417V5.62333C1.75305 6.17452 1.96 6.7078 2.33582 7.13298C2.71165 7.55816 3.23328 7.84912 3.8125 7.95667C3.58953 8.02 3.35805 8.05339 3.125 8.05583C2.96368 8.05407 2.80276 8.04042 2.64375 8.015C2.80869 8.48914 3.12789 8.9035 3.55692 9.20043C3.98595 9.49735 4.50348 9.66207 5.0375 9.67167C4.13575 10.3339 3.02243 10.6953 1.875 10.6983C1.66608 10.699 1.45733 10.6873 1.25 10.6633C2.42152 11.3693 3.78676 11.7441 5.18125 11.7425C6.14356 11.7518 7.09821 11.5821 7.98945 11.2432C8.88068 10.9043 9.69064 10.4031 10.372 9.76879C11.0534 9.13448 11.5925 8.37981 11.9578 7.54886C12.3232 6.71791 12.5075 5.82734 12.5 4.92917C12.5 4.83 12.5 4.725 12.5 4.62C12.9904 4.27864 13.4134 3.86016 13.75 3.38333V3.38333Z" fill="#121212"/>
</g>
</svg>
