<svg width="30" height="30" viewBox="0 0 30 30" fill="none" xmlns="http://www.w3.org/2000/svg">
<path d="M21.5729 3.45679H21.1346V6.74038C21.1346 6.89578 21.1964 7.04482 21.3063 7.1547C21.4162 7.26459 21.5652 7.32632 21.7206 7.32632H24.8542V6.84585L24.1839 6.15444H22.3065V4.21382L21.5729 3.45679ZM23.086 21.6797V13.943C23.086 13.7876 23.0243 13.6385 22.9144 13.5286C22.8045 13.4188 22.6554 13.357 22.5 13.357H3.97559C3.82019 13.357 3.67115 13.4188 3.56127 13.5286C3.45138 13.6385 3.38965 13.7876 3.38965 13.943V21.6797C3.38965 21.8351 3.45138 21.9841 3.56127 22.094C3.67115 22.2039 3.82019 22.2656 3.97559 22.2656H22.5C22.6554 22.2656 22.8045 22.2039 22.9144 22.094C23.0243 21.9841 23.086 21.8351 23.086 21.6797ZM22 21L4.56152 21.0937V14.5289L22 14.5V17.5V21Z" fill="black"/>
<path d="M26.4463 5.96485L22.49 1.87735C22.4354 1.82071 22.3698 1.77574 22.2973 1.74512C22.2248 1.71451 22.1469 1.6989 22.0682 1.69922H6.8877C6.7323 1.69922 6.58326 1.76096 6.47337 1.87084C6.36349 1.98073 6.30176 2.12976 6.30176 2.28516V12.7711H7.47363V2.8711H21.8204L25.4392 6.60938V27.1289H7.47363V22.8516H6.30176V27.7148C6.30176 27.8702 6.36349 28.0193 6.47337 28.1292C6.58326 28.2391 6.7323 28.3008 6.8877 28.3008H26.0244C26.1798 28.3008 26.3288 28.2391 26.4387 28.1292C26.5486 28.0193 26.6104 27.8702 26.6104 27.7148V6.37266C26.6104 6.22063 26.5516 6.07448 26.4463 5.96485Z" fill="black"/>
<path d="M5.66064 19.8159C5.69126 19.8702 5.73577 19.9154 5.7896 19.9468C5.84343 19.9782 5.90464 19.9948 5.96697 19.9948H6.51048C6.5735 19.9948 6.63536 19.9778 6.68958 19.9457C6.7438 19.9136 6.78839 19.8675 6.81869 19.8122L7.25322 19.0181C7.2947 18.9478 7.33173 18.8848 7.36572 18.8255C7.40087 18.8836 7.43837 18.9445 7.47798 19.009L7.94673 19.819C7.97761 19.8725 8.02203 19.9169 8.07551 19.9477C8.129 19.9786 8.18967 19.9948 8.25142 19.9948H8.80033C8.86268 19.9948 8.9239 19.9782 8.97772 19.9467C9.03154 19.9152 9.07602 19.87 9.1066 19.8156C9.13717 19.7613 9.15275 19.6998 9.15173 19.6375C9.15071 19.5751 9.13313 19.5142 9.1008 19.4609L8.07025 17.7656L9.07056 16.1656C9.10382 16.1123 9.12223 16.0512 9.12388 15.9885C9.12553 15.9257 9.11035 15.8637 9.07993 15.8088C9.04951 15.7539 9.00495 15.7082 8.95088 15.6763C8.8968 15.6445 8.83519 15.6277 8.77244 15.6277H8.22822C8.16658 15.6275 8.10599 15.6436 8.05251 15.6742C7.99903 15.7048 7.95455 15.749 7.92353 15.8023L7.42314 16.6613L7.38423 16.7285L7.34837 16.6652L6.86486 15.8065C6.83426 15.7522 6.78977 15.7069 6.73594 15.6755C6.68211 15.644 6.62088 15.6274 6.55853 15.6274H6.01033C5.94823 15.6274 5.88723 15.6439 5.83355 15.6751C5.77987 15.7063 5.73543 15.7512 5.70473 15.8052C5.67403 15.8592 5.65819 15.9204 5.6588 15.9825C5.65941 16.0446 5.67646 16.1054 5.70822 16.1588L6.67666 17.7877L5.66603 19.4611C5.63374 19.5145 5.61622 19.5754 5.61527 19.6378C5.61433 19.7002 5.62998 19.7616 5.66064 19.8159ZM10.504 19.9945H12.5431C12.6363 19.9945 12.7257 19.9575 12.7917 19.8916C12.8576 19.8256 12.8946 19.7362 12.8946 19.643V19.2462C12.8946 19.1529 12.8576 19.0635 12.7917 18.9976C12.7257 18.9317 12.6363 18.8946 12.5431 18.8946H11.329V15.9792C11.329 15.886 11.292 15.7966 11.226 15.7306C11.1601 15.6647 11.0707 15.6277 10.9774 15.6277H10.504C10.4108 15.6277 10.3213 15.6647 10.2554 15.7306C10.1895 15.7966 10.1524 15.886 10.1524 15.9792V19.643C10.1524 19.7362 10.1895 19.8256 10.2554 19.8916C10.3213 19.9575 10.4108 19.9945 10.504 19.9945ZM13.9029 19.7578C14.2467 19.9544 14.6368 20.0555 15.0328 20.0506C16.162 20.0506 16.6676 19.3444 16.6676 18.6443C16.6676 17.7968 16.0474 17.449 15.5077 17.2399C15.0042 17.0452 15.0042 16.9519 15.0042 16.8614C15.0042 16.7379 15.1308 16.6638 15.3429 16.6638C15.5268 16.6633 15.708 16.7083 15.8702 16.7949C15.9153 16.8195 15.9652 16.8339 16.0164 16.8372C16.0676 16.8404 16.1189 16.8324 16.1667 16.8138C16.2145 16.7951 16.2576 16.7662 16.2931 16.7291C16.3285 16.692 16.3554 16.6475 16.3718 16.5989L16.5024 16.2131C16.5285 16.1357 16.5269 16.0516 16.4978 15.9753C16.4686 15.8989 16.4138 15.8351 16.3427 15.7948C16.0388 15.6381 15.7002 15.5606 15.3584 15.5695C14.4677 15.5695 13.8216 16.1358 13.8216 16.9158C13.8216 17.5418 14.2259 18.0028 15.0148 18.2824C15.4795 18.4613 15.4795 18.5735 15.4795 18.6825C15.4795 18.9087 15.2538 18.956 15.0645 18.956C14.8305 18.9535 14.6014 18.8888 14.4007 18.7685C14.3549 18.7403 14.3031 18.7229 14.2495 18.7179C14.1959 18.7128 14.1418 18.7201 14.0914 18.7392C14.0411 18.7584 13.9958 18.7888 13.9591 18.8283C13.9224 18.8677 13.8952 18.915 13.8797 18.9666L13.7602 19.3631C13.7384 19.4355 13.7405 19.513 13.7662 19.5841C13.7919 19.6552 13.8398 19.7161 13.9029 19.7578Z" fill="black"/>
<path d="M17.5454 19.7584C17.576 19.8127 17.6205 19.8579 17.6744 19.8893C17.7282 19.9207 17.7894 19.9373 17.8517 19.9373H18.3952C18.4583 19.9373 18.5201 19.9203 18.5743 19.8882C18.6286 19.8561 18.6732 19.81 18.7035 19.7547L19.138 18.9606C19.1795 18.8903 19.2165 18.8273 19.2505 18.768C19.2856 18.8261 19.3231 18.887 19.3627 18.9515L19.8315 19.7615C19.8624 19.815 19.9068 19.8594 19.9603 19.8902C20.0138 19.9211 20.0744 19.9373 20.1362 19.9373H20.6851C20.7475 19.9373 20.8087 19.9207 20.8625 19.8892C20.9163 19.8577 20.9608 19.8125 20.9914 19.7581C21.0219 19.7038 21.0375 19.6423 21.0365 19.58C21.0355 19.5176 21.0179 19.4567 20.9856 19.4034L19.955 17.7081L20.9553 16.1081C20.9886 16.0548 21.007 15.9937 21.0087 15.931C21.0103 15.8682 20.9951 15.8062 20.9647 15.7513C20.9343 15.6964 20.8897 15.6507 20.8356 15.6188C20.7816 15.587 20.72 15.5702 20.6572 15.5702H20.113C20.0513 15.57 19.9908 15.5861 19.9373 15.6167C19.8838 15.6473 19.8393 15.6915 19.8083 15.7448L19.3079 16.6038L19.269 16.671L19.2331 16.6077L18.7496 15.749C18.719 15.6947 18.6745 15.6494 18.6207 15.618C18.5669 15.5865 18.5056 15.5699 18.4433 15.5699H17.8951C17.833 15.5699 17.772 15.5864 17.7183 15.6176C17.6646 15.6488 17.6202 15.6937 17.5895 15.7477C17.5588 15.8017 17.543 15.8629 17.5436 15.925C17.5442 15.9871 17.5612 16.0479 17.593 16.1013L18.5614 17.7302L17.5508 19.4036C17.5185 19.457 17.501 19.5179 17.5 19.5803C17.4991 19.6427 17.5147 19.7041 17.5454 19.7584Z" fill="black"/>
</svg>
