<svg width="30" height="30" viewBox="0 0 30 30" fill="none" xmlns="http://www.w3.org/2000/svg">
<path d="M21.5729 3.45679H21.1346V6.74038C21.1346 6.89578 21.1964 7.04482 21.3063 7.1547C21.4162 7.26459 21.5652 7.32632 21.7206 7.32632H24.8542V6.84585L24.1839 6.15444H22.3065V4.21382L21.5729 3.45679ZM18.8924 21.6797V13.943C18.8924 13.7876 18.8307 13.6385 18.7208 13.5286C18.6109 13.4188 18.4618 13.357 18.3064 13.357H3.97559C3.82019 13.357 3.67115 13.4188 3.56127 13.5286C3.45138 13.6385 3.38965 13.7876 3.38965 13.943V21.6797C3.38965 21.8351 3.45138 21.9841 3.56127 22.094C3.67115 22.2039 3.82019 22.2656 3.97559 22.2656H18.3064C18.4618 22.2656 18.6109 22.2039 18.7208 22.094C18.8307 21.9841 18.8924 21.8351 18.8924 21.6797ZM17.7205 21.0937H4.56152V14.5289H17.7205V21.0937Z" fill="black"/>
<path d="M26.4463 5.96485L22.49 1.87735C22.4354 1.82071 22.3698 1.77574 22.2973 1.74512C22.2248 1.71451 22.1469 1.6989 22.0682 1.69922H6.8877C6.7323 1.69922 6.58326 1.76096 6.47337 1.87084C6.36349 1.98073 6.30176 2.12976 6.30176 2.28516V12.7711H7.47363V2.8711H21.8204L25.4392 6.60938V27.1289H7.47363V22.8516H6.30176V27.7148C6.30176 27.8702 6.36349 28.0193 6.47337 28.1292C6.58326 28.2391 6.7323 28.3008 6.8877 28.3008H26.0244C26.1798 28.3008 26.3288 28.2391 26.4387 28.1292C26.5486 28.0193 26.6104 27.8702 26.6104 27.7148V6.37266C26.6104 6.22063 26.5516 6.07448 26.4463 5.96485Z" fill="black"/>
<path d="M5.2825 19.8159C5.31313 19.8702 5.35763 19.9154 5.41146 19.9468C5.46529 19.9782 5.5265 19.9948 5.58883 19.9947H6.13235C6.19537 19.9947 6.25723 19.9778 6.31145 19.9457C6.36567 19.9135 6.41026 19.8674 6.44055 19.8122L6.87508 19.0181C6.91657 18.9478 6.9536 18.8847 6.98758 18.8255C7.02274 18.8836 7.06024 18.9445 7.09985 19.009L7.5686 19.819C7.59947 19.8724 7.64389 19.9168 7.69738 19.9477C7.75086 19.9786 7.81154 19.9948 7.87329 19.9947H8.42219C8.48454 19.9947 8.54576 19.9781 8.59958 19.9466C8.6534 19.9152 8.69788 19.8699 8.72846 19.8156C8.75904 19.7613 8.77462 19.6998 8.7736 19.6374C8.77258 19.5751 8.755 19.5141 8.72266 19.4608L7.69211 17.7656L8.69196 16.1662C8.72522 16.113 8.74363 16.0519 8.74528 15.9891C8.74692 15.9264 8.73175 15.8644 8.70132 15.8095C8.6709 15.7546 8.62634 15.7088 8.57227 15.677C8.5182 15.6451 8.45659 15.6283 8.39383 15.6283H7.85008C7.78845 15.6282 7.72785 15.6442 7.67438 15.6749C7.6209 15.7055 7.57642 15.7497 7.5454 15.803L7.045 16.6619L7.0061 16.7292L6.97024 16.6659L6.48672 15.8072C6.45613 15.7528 6.41164 15.7076 6.35781 15.6762C6.30398 15.6447 6.24275 15.6281 6.1804 15.6281H5.63219C5.57009 15.6281 5.5091 15.6446 5.45542 15.6758C5.40174 15.707 5.35729 15.7519 5.3266 15.8059C5.2959 15.8599 5.28005 15.921 5.28066 15.9831C5.28128 16.0452 5.29833 16.1061 5.33008 16.1594L6.29852 17.7883L5.2879 19.4618C5.25574 19.5151 5.23829 19.5759 5.23735 19.6381C5.2364 19.7003 5.25198 19.7617 5.2825 19.8159ZM9.59735 19.9945H10.0485C10.1381 19.9947 10.2244 19.9607 10.2897 19.8994C10.3551 19.8381 10.3945 19.7542 10.4001 19.6647L10.4758 18.449L10.9115 19.7344C10.9351 19.8039 10.9799 19.8643 11.0396 19.9071C11.0993 19.9499 11.1709 19.9729 11.2443 19.973H11.6029C11.675 19.9729 11.7454 19.9507 11.8045 19.9093C11.8635 19.868 11.9085 19.8094 11.9331 19.7416L12.4476 18.3281L12.5242 19.6619C12.5294 19.7516 12.5687 19.836 12.6341 19.8976C12.6994 19.9592 12.7859 19.9935 12.8758 19.9933H13.3361C13.3842 19.9934 13.4318 19.9837 13.4759 19.9646C13.5201 19.9456 13.5599 19.9177 13.5928 19.8827C13.6258 19.8477 13.6512 19.8063 13.6675 19.7611C13.6838 19.7158 13.6907 19.6677 13.6877 19.6197L13.4591 15.956C13.4535 15.8666 13.414 15.7828 13.3487 15.7215C13.2834 15.6603 13.1971 15.6263 13.1076 15.6265H12.5055C12.4336 15.6265 12.3634 15.6485 12.3045 15.6896C12.2455 15.7308 12.2006 15.7889 12.1757 15.8564L11.5218 17.633C11.5023 17.6875 11.4837 17.7405 11.466 17.7921L11.4128 17.633L10.7877 15.8608C10.7635 15.7923 10.7186 15.7329 10.6592 15.6909C10.5998 15.6489 10.5288 15.6264 10.4561 15.6265H9.85258C9.76326 15.6263 9.67722 15.6601 9.61192 15.721C9.54663 15.782 9.50697 15.8655 9.50102 15.9546L9.24555 19.6183C9.24234 19.6664 9.24905 19.7147 9.26527 19.7601C9.2815 19.8055 9.30688 19.8471 9.33985 19.8822C9.37283 19.9174 9.41268 19.9454 9.45693 19.9645C9.50119 19.9836 9.54891 19.9934 9.59711 19.9933L9.59735 19.9945ZM14.6556 19.9945H16.6947C16.7879 19.9945 16.8774 19.9575 16.9433 19.8915C17.0092 19.8256 17.0463 19.7362 17.0463 19.643V19.2462C17.0463 19.1529 17.0092 19.0635 16.9433 18.9976C16.8774 18.9316 16.7879 18.8946 16.6947 18.8946H15.4806V15.9792C15.4806 15.886 15.4436 15.7965 15.3777 15.7306C15.3117 15.6647 15.2223 15.6276 15.1291 15.6276H14.6556C14.5624 15.6276 14.473 15.6647 14.407 15.7306C14.3411 15.7965 14.3041 15.886 14.3041 15.9792V19.643C14.3041 19.7362 14.3411 19.8256 14.407 19.8915C14.473 19.9575 14.5624 19.9945 14.6556 19.9945Z" fill="black"/>
</svg>
