<svg width="35" height="35" viewBox="0 0 35 35" fill="none" xmlns="http://www.w3.org/2000/svg">
<g id="Business / office bag">
<path id="Vector" d="M30.625 8.75002H24.7916V7.29169C24.7916 6.13136 24.3307 5.01857 23.5102 4.19809C22.6897 3.37762 21.5769 2.91669 20.4166 2.91669H14.5833C13.423 2.91669 12.3102 3.37762 11.4897 4.19809C10.6692 5.01857 10.2083 6.13136 10.2083 7.29169V8.75002H4.37496C3.98819 8.75002 3.61725 8.90367 3.34376 9.17716C3.07027 9.45065 2.91663 9.82158 2.91663 10.2084V16.0417C2.91991 16.6533 3.05139 17.2574 3.30258 17.815C3.55377 18.3727 3.91909 18.8715 4.37496 19.2792V27.7084C4.37496 28.8687 4.8359 29.9815 5.65637 30.8019C6.47684 31.6224 7.58964 32.0834 8.74996 32.0834H26.25C27.4103 32.0834 28.5231 31.6224 29.3435 30.8019C30.164 29.9815 30.625 28.8687 30.625 27.7084V19.2792C31.0808 18.8715 31.4461 18.3727 31.6973 17.815C31.9485 17.2574 32.08 16.6533 32.0833 16.0417V10.2084C32.0833 9.82158 31.9296 9.45065 31.6562 9.17716C31.3827 8.90367 31.0117 8.75002 30.625 8.75002ZM13.125 7.29169C13.125 6.90491 13.2786 6.53398 13.5521 6.26049C13.8256 5.987 14.1965 5.83335 14.5833 5.83335H20.4166C20.8034 5.83335 21.1743 5.987 21.4478 6.26049C21.7213 6.53398 21.875 6.90491 21.875 7.29169V8.75002H13.125V7.29169ZM27.7083 27.7084C27.7083 28.0951 27.5546 28.4661 27.2812 28.7396C27.0077 29.013 26.6367 29.1667 26.25 29.1667H8.74996C8.36318 29.1667 7.99225 29.013 7.71876 28.7396C7.44527 28.4661 7.29163 28.0951 7.29163 27.7084V20.4167H10.2083V21.875C10.2083 22.2618 10.3619 22.6327 10.6354 22.9062C10.9089 23.1797 11.2799 23.3334 11.6666 23.3334C12.0534 23.3334 12.4243 23.1797 12.6978 22.9062C12.9713 22.6327 13.125 22.2618 13.125 21.875V20.4167H21.875V21.875C21.875 22.2618 22.0286 22.6327 22.3021 22.9062C22.5756 23.1797 22.9465 23.3334 23.3333 23.3334C23.7201 23.3334 24.091 23.1797 24.3645 22.9062C24.638 22.6327 24.7916 22.2618 24.7916 21.875V20.4167H27.7083V27.7084ZM29.1666 16.0417C29.1666 16.4285 29.013 16.7994 28.7395 17.0729C28.466 17.3464 28.0951 17.5 27.7083 17.5H24.7916V16.0417C24.7916 15.6549 24.638 15.284 24.3645 15.0105C24.091 14.737 23.7201 14.5834 23.3333 14.5834C22.9465 14.5834 22.5756 14.737 22.3021 15.0105C22.0286 15.284 21.875 15.6549 21.875 16.0417V17.5H13.125V16.0417C13.125 15.6549 12.9713 15.284 12.6978 15.0105C12.4243 14.737 12.0534 14.5834 11.6666 14.5834C11.2799 14.5834 10.9089 14.737 10.6354 15.0105C10.3619 15.284 10.2083 15.6549 10.2083 16.0417V17.5H7.29163C6.90485 17.5 6.53392 17.3464 6.26043 17.0729C5.98694 16.7994 5.83329 16.4285 5.83329 16.0417V11.6667H29.1666V16.0417Z" fill="white"/>
</g>
</svg>
