<svg width="35" height="35" viewBox="0 0 35 35" fill="none" xmlns="http://www.w3.org/2000/svg">
<g id="File and Folder / books">
<path id="Vector" d="M32.7687 27.4459L31.3104 21.8167L26.7167 4.9146C26.6174 4.54176 26.3744 4.22346 26.041 4.02939C25.7075 3.83533 25.3107 3.78131 24.9375 3.87919L19.2937 5.33752C19.1591 5.18825 18.995 5.06845 18.8118 4.98563C18.6286 4.90281 18.4302 4.85877 18.2292 4.85627H3.64583C3.25906 4.85627 2.88813 5.00991 2.61464 5.2834C2.34115 5.5569 2.1875 5.92783 2.1875 6.3146V29.6479C2.1875 30.0347 2.34115 30.4056 2.61464 30.6791C2.88813 30.9526 3.25906 31.1063 3.64583 31.1063H18.2292C18.6159 31.1063 18.9869 30.9526 19.2604 30.6791C19.5339 30.4056 19.6875 30.0347 19.6875 29.6479V17.9813L22.8958 29.9688C22.9813 30.2869 23.172 30.5668 23.4368 30.7627C23.7016 30.9587 24.0249 31.0592 24.3542 31.0479C24.4802 31.0623 24.6073 31.0623 24.7333 31.0479L31.7771 29.1667C31.9633 29.1169 32.1378 29.0307 32.2905 28.913C32.4432 28.7954 32.571 28.6486 32.6667 28.4813C32.8205 28.1586 32.8566 27.7923 32.7687 27.4459ZM9.43542 28.2479H5.06042V25.3313H9.43542V28.2479ZM9.43542 22.4146H5.06042V13.6646H9.43542V22.4146ZM9.43542 10.7479H5.06042V7.83127H9.43542V10.7479ZM16.7271 28.2479H12.3521V25.3313H16.7271V28.2479ZM16.7271 22.4146H12.3521V13.6646H16.7271V22.4146ZM16.7271 10.7479H12.3521V7.83127H16.7271V10.7479ZM20.0083 8.21044L24.2375 7.07294L24.9958 9.88752L20.7667 11.025L20.0083 8.21044ZM23.7854 22.2979L21.525 13.8396L25.7542 12.7021L28.0146 21.1604L23.7854 22.2979ZM25.2437 27.9271L24.4854 25.1125L28.7146 23.975L29.4729 26.7896L25.2437 27.9271Z" fill="white"/>
</g>
</svg>
