<svg width="35" height="35" viewBox="0 0 35 35" fill="none" xmlns="http://www.w3.org/2000/svg">
<g id="File and Folder / clipboard">
<path id="Vector" d="M21.875 20.4167H13.125C12.7383 20.4167 12.3673 20.5703 12.0938 20.8438C11.8204 21.1173 11.6667 21.4882 11.6667 21.875C11.6667 22.2618 11.8204 22.6327 12.0938 22.9062C12.3673 23.1797 12.7383 23.3334 13.125 23.3334H21.875C22.2618 23.3334 22.6327 23.1797 22.9062 22.9062C23.1797 22.6327 23.3334 22.2618 23.3334 21.875C23.3334 21.4882 23.1797 21.1173 22.9062 20.8438C22.6327 20.5703 22.2618 20.4167 21.875 20.4167ZM21.875 14.5834H16.0417C15.6549 14.5834 15.284 14.737 15.0105 15.0105C14.737 15.284 14.5834 15.6549 14.5834 16.0417C14.5834 16.4285 14.737 16.7994 15.0105 17.0729C15.284 17.3464 15.6549 17.5 16.0417 17.5H21.875C22.2618 17.5 22.6327 17.3464 22.9062 17.0729C23.1797 16.7994 23.3334 16.4285 23.3334 16.0417C23.3334 15.6549 23.1797 15.284 22.9062 15.0105C22.6327 14.737 22.2618 14.5834 21.875 14.5834ZM24.7917 5.83335H23.0709C22.77 4.98234 22.2133 4.24523 21.477 3.72306C20.7407 3.20088 19.861 2.91922 18.9584 2.91669H16.0417C15.1391 2.91922 14.2593 3.20088 13.5231 3.72306C12.7868 4.24523 12.2301 4.98234 11.9292 5.83335H10.2084C9.04805 5.83335 7.93525 6.29429 7.11478 7.11476C6.29431 7.93523 5.83337 9.04803 5.83337 10.2084V27.7084C5.83337 28.8687 6.29431 29.9815 7.11478 30.8019C7.93525 31.6224 9.04805 32.0834 10.2084 32.0834H24.7917C25.952 32.0834 27.0648 31.6224 27.8853 30.8019C28.7058 29.9815 29.1667 28.8687 29.1667 27.7084V10.2084C29.1667 9.04803 28.7058 7.93523 27.8853 7.11476C27.0648 6.29429 25.952 5.83335 24.7917 5.83335ZM14.5834 7.29169C14.5834 6.90491 14.737 6.53398 15.0105 6.26049C15.284 5.987 15.6549 5.83335 16.0417 5.83335H18.9584C19.3451 5.83335 19.7161 5.987 19.9896 6.26049C20.2631 6.53398 20.4167 6.90491 20.4167 7.29169V8.75002H14.5834V7.29169ZM26.25 27.7084C26.25 28.0951 26.0964 28.4661 25.8229 28.7396C25.5494 29.013 25.1785 29.1667 24.7917 29.1667H10.2084C9.8216 29.1667 9.45067 29.013 9.17718 28.7396C8.90369 28.4661 8.75004 28.0951 8.75004 27.7084V10.2084C8.75004 9.82158 8.90369 9.45065 9.17718 9.17716C9.45067 8.90367 9.8216 8.75002 10.2084 8.75002H11.6667V10.2084C11.6667 10.5951 11.8204 10.9661 12.0938 11.2396C12.3673 11.513 12.7383 11.6667 13.125 11.6667H21.875C22.2618 11.6667 22.6327 11.513 22.9062 11.2396C23.1797 10.9661 23.3334 10.5951 23.3334 10.2084V8.75002H24.7917C25.1785 8.75002 25.5494 8.90367 25.8229 9.17716C26.0964 9.45065 26.25 9.82158 26.25 10.2084V27.7084Z" fill="white"/>
</g>
</svg>
