<svg width="35" height="35" viewBox="0 0 35 35" fill="none" xmlns="http://www.w3.org/2000/svg">
<g id="File and Folder / document info">
<path id="Vector" d="M21.8749 23.3334H13.1249C12.7381 23.3334 12.3672 23.487 12.0937 23.7605C11.8202 24.034 11.6666 24.4049 11.6666 24.7917C11.6666 25.1785 11.8202 25.5494 12.0937 25.8229C12.3672 26.0964 12.7381 26.25 13.1249 26.25H21.8749C22.2617 26.25 22.6326 26.0964 22.9061 25.8229C23.1796 25.5494 23.3333 25.1785 23.3333 24.7917C23.3333 24.4049 23.1796 24.034 22.9061 23.7605C22.6326 23.487 22.2617 23.3334 21.8749 23.3334ZM13.1249 14.5834H14.5833C14.97 14.5834 15.341 14.4297 15.6144 14.1562C15.8879 13.8827 16.0416 13.5118 16.0416 13.125C16.0416 12.7382 15.8879 12.3673 15.6144 12.0938C15.341 11.8203 14.97 11.6667 14.5833 11.6667H13.1249C12.7381 11.6667 12.3672 11.8203 12.0937 12.0938C11.8202 12.3673 11.6666 12.7382 11.6666 13.125C11.6666 13.5118 11.8202 13.8827 12.0937 14.1562C12.3672 14.4297 12.7381 14.5834 13.1249 14.5834ZM21.8749 17.5H13.1249C12.7381 17.5 12.3672 17.6537 12.0937 17.9272C11.8202 18.2006 11.6666 18.5716 11.6666 18.9584C11.6666 19.3451 11.8202 19.7161 12.0937 19.9895C12.3672 20.263 12.7381 20.4167 13.1249 20.4167H21.8749C22.2617 20.4167 22.6326 20.263 22.9061 19.9895C23.1796 19.7161 23.3333 19.3451 23.3333 18.9584C23.3333 18.5716 23.1796 18.2006 22.9061 17.9272C22.6326 17.6537 22.2617 17.5 21.8749 17.5ZM28.7437 22.2979C28.605 22.1652 28.4414 22.0611 28.2624 21.9917C28.0883 21.9127 27.8994 21.8719 27.7083 21.8719C27.5171 21.8719 27.3282 21.9127 27.1541 21.9917C26.9751 22.0611 26.8115 22.1652 26.6728 22.2979C26.544 22.4397 26.4404 22.6025 26.3666 22.7792C26.2549 23.0448 26.2244 23.3375 26.2789 23.6204C26.3334 23.9033 26.4705 24.1637 26.6728 24.3688C26.8091 24.5039 26.9707 24.6109 27.1484 24.6834C27.3261 24.756 27.5163 24.7928 27.7083 24.7917C27.8988 24.7894 28.0871 24.7497 28.2624 24.675C28.4391 24.6012 28.6019 24.4976 28.7437 24.3688C28.946 24.1637 29.0831 23.9033 29.1376 23.6204C29.1921 23.3375 29.1616 23.0448 29.0499 22.7792C28.9761 22.6025 28.8725 22.4397 28.7437 22.2979ZM29.1666 13.0375C29.1514 12.9035 29.1221 12.7716 29.0791 12.6438V12.5125C29.009 12.3626 28.9154 12.2247 28.802 12.1042L20.052 3.35419C19.9314 3.24075 19.7936 3.14722 19.6437 3.0771C19.6001 3.07092 19.5559 3.07092 19.5124 3.0771C19.3643 2.99214 19.2007 2.93761 19.0312 2.91669H10.2083C9.04793 2.91669 7.93513 3.37762 7.11466 4.19809C6.29419 5.01857 5.83325 6.13136 5.83325 7.29169V27.7084C5.83325 28.8687 6.29419 29.9815 7.11466 30.8019C7.93513 31.6224 9.04793 32.0834 10.2083 32.0834H21.8749C22.2617 32.0834 22.6326 31.9297 22.9061 31.6562C23.1796 31.3827 23.3333 31.0118 23.3333 30.625C23.3333 30.2382 23.1796 29.8673 22.9061 29.5938C22.6326 29.3203 22.2617 29.1667 21.8749 29.1667H10.2083C9.82148 29.1667 9.45055 29.013 9.17705 28.7396C8.90356 28.4661 8.74992 28.0951 8.74992 27.7084V7.29169C8.74992 6.90491 8.90356 6.53398 9.17705 6.26049C9.45055 5.987 9.82148 5.83335 10.2083 5.83335H17.4999V10.2084C17.4999 11.3687 17.9609 12.4815 18.7813 13.3019C19.6018 14.1224 20.7146 14.5834 21.8749 14.5834H26.2499V17.5C26.2499 17.8868 26.4036 18.2577 26.6771 18.5312C26.9505 18.8047 27.3215 18.9584 27.7083 18.9584C28.095 18.9584 28.466 18.8047 28.7394 18.5312C29.0129 18.2577 29.1666 17.8868 29.1666 17.5V13.125C29.1666 13.125 29.1666 13.125 29.1666 13.0375ZM21.8749 11.6667C21.4881 11.6667 21.1172 11.513 20.8437 11.2396C20.5702 10.9661 20.4166 10.5951 20.4166 10.2084V7.8896L24.1937 11.6667H21.8749ZM27.7083 26.25C27.3215 26.25 26.9505 26.4037 26.6771 26.6772C26.4036 26.9506 26.2499 27.3216 26.2499 27.7084V30.625C26.2499 31.0118 26.4036 31.3827 26.6771 31.6562C26.9505 31.9297 27.3215 32.0834 27.7083 32.0834C28.095 32.0834 28.466 31.9297 28.7394 31.6562C29.0129 31.3827 29.1666 31.0118 29.1666 30.625V27.7084C29.1666 27.3216 29.0129 26.9506 28.7394 26.6772C28.466 26.4037 28.095 26.25 27.7083 26.25Z" fill="white"/>
</g>
</svg>
