<svg width="35" height="35" viewBox="0 0 35 35" fill="none" xmlns="http://www.w3.org/2000/svg">
<g id="File and Folder / approve file">
<path id="Vector" d="M16.7709 29.1667H8.02087C7.6341 29.1667 7.26317 29.013 6.98968 28.7396C6.71619 28.4661 6.56254 28.0951 6.56254 27.7084V7.29169C6.56254 6.90491 6.71619 6.53398 6.98968 6.26049C7.26317 5.987 7.6341 5.83335 8.02087 5.83335H15.3125V10.2084C15.3125 11.3687 15.7735 12.4815 16.5939 13.3019C17.4144 14.1224 18.5272 14.5834 19.6875 14.5834H24.0625V21.875C24.0625 22.2618 24.2162 22.6327 24.4897 22.9062C24.7632 23.1797 25.1341 23.3334 25.5209 23.3334C25.9076 23.3334 26.2786 23.1797 26.5521 22.9062C26.8256 22.6327 26.9792 22.2618 26.9792 21.875V13.125C26.9792 13.125 26.9792 13.125 26.9792 13.0375C26.964 12.9036 26.9347 12.7716 26.8917 12.6438V12.5125C26.8216 12.3626 26.7281 12.2247 26.6146 12.1042L17.8646 3.35419C17.7441 3.24075 17.6062 3.14722 17.4563 3.0771C17.408 3.06866 17.3587 3.06866 17.3105 3.0771C17.1687 3.00127 17.0163 2.9472 16.8584 2.91669H8.02087C6.86055 2.91669 5.74775 3.37762 4.92728 4.19809C4.10681 5.01857 3.64587 6.13137 3.64587 7.29169V27.7084C3.64587 28.8687 4.10681 29.9815 4.92728 30.8019C5.74775 31.6224 6.86055 32.0834 8.02087 32.0834H16.7709C17.1576 32.0834 17.5286 31.9297 17.8021 31.6562C18.0756 31.3827 18.2292 31.0118 18.2292 30.625C18.2292 30.2382 18.0756 29.8673 17.8021 29.5938C17.5286 29.3203 17.1576 29.1667 16.7709 29.1667ZM18.2292 7.8896L22.0063 11.6667H19.6875C19.3008 11.6667 18.9298 11.513 18.6563 11.2396C18.3829 10.9661 18.2292 10.5951 18.2292 10.2084V7.8896ZM10.9375 20.4167H19.6875C20.0743 20.4167 20.4452 20.263 20.7187 19.9896C20.9922 19.7161 21.1459 19.3451 21.1459 18.9584C21.1459 18.5716 20.9922 18.2006 20.7187 17.9272C20.4452 17.6537 20.0743 17.5 19.6875 17.5H10.9375C10.5508 17.5 10.1798 17.6537 9.90634 17.9272C9.63285 18.2006 9.47921 18.5716 9.47921 18.9584C9.47921 19.3451 9.63285 19.7161 9.90634 19.9896C10.1798 20.263 10.5508 20.4167 10.9375 20.4167ZM16.7709 23.3334H10.9375C10.5508 23.3334 10.1798 23.487 9.90634 23.7605C9.63285 24.034 9.47921 24.4049 9.47921 24.7917C9.47921 25.1785 9.63285 25.5494 9.90634 25.8229C10.1798 26.0964 10.5508 26.25 10.9375 26.25H16.7709C17.1576 26.25 17.5286 26.0964 17.8021 25.8229C18.0756 25.5494 18.2292 25.1785 18.2292 24.7917C18.2292 24.4049 18.0756 24.034 17.8021 23.7605C17.5286 23.487 17.1576 23.3334 16.7709 23.3334ZM10.9375 14.5834H12.3959C12.7826 14.5834 13.1536 14.4297 13.4271 14.1562C13.7006 13.8827 13.8542 13.5118 13.8542 13.125C13.8542 12.7382 13.7006 12.3673 13.4271 12.0938C13.1536 11.8203 12.7826 11.6667 12.3959 11.6667H10.9375C10.5508 11.6667 10.1798 11.8203 9.90634 12.0938C9.63285 12.3673 9.47921 12.7382 9.47921 13.125C9.47921 13.5118 9.63285 13.8827 9.90634 14.1562C10.1798 14.4297 10.5508 14.5834 10.9375 14.5834ZM30.9313 23.7563C30.7957 23.6196 30.6344 23.5111 30.4567 23.4371C30.279 23.363 30.0884 23.3249 29.8959 23.3249C29.7034 23.3249 29.5127 23.363 29.335 23.4371C29.1573 23.5111 28.996 23.6196 28.8605 23.7563L24.0625 28.5688L22.1813 26.6729C22.0453 26.537 21.8839 26.4291 21.7062 26.3555C21.5286 26.2819 21.3382 26.2441 21.1459 26.2441C20.9536 26.2441 20.7632 26.2819 20.5855 26.3555C20.4079 26.4291 20.2464 26.537 20.1105 26.6729C19.9745 26.8089 19.8666 26.9703 19.793 27.148C19.7194 27.3256 19.6816 27.5161 19.6816 27.7084C19.6816 27.9006 19.7194 28.0911 19.793 28.2687C19.8666 28.4464 19.9745 28.6078 20.1105 28.7438L23.0271 31.6604C23.1627 31.7971 23.324 31.9056 23.5017 31.9797C23.6794 32.0537 23.87 32.0918 24.0625 32.0918C24.2551 32.0918 24.4457 32.0537 24.6234 31.9797C24.8011 31.9056 24.9624 31.7971 25.098 31.6604L30.9313 25.8271C31.068 25.6915 31.1765 25.5302 31.2505 25.3525C31.3245 25.1748 31.3627 24.9842 31.3627 24.7917C31.3627 24.5992 31.3245 24.4086 31.2505 24.2308C31.1765 24.0531 31.068 23.8918 30.9313 23.7563Z" fill="white"/>
</g>
</svg>
