<svg width="35" height="35" viewBox="0 0 35 35" fill="none" xmlns="http://www.w3.org/2000/svg">
<g id="File and Folder / document info">
<path id="Vector" d="M17.5 20.4167C17.1133 20.4167 16.7423 20.5703 16.4688 20.8438C16.1954 21.1173 16.0417 21.4882 16.0417 21.875V24.7917C16.0417 25.1785 16.1954 25.5494 16.4688 25.8229C16.7423 26.0964 17.1133 26.25 17.5 26.25C17.8868 26.25 18.2577 26.0964 18.5312 25.8229C18.8047 25.5494 18.9584 25.1785 18.9584 24.7917V21.875C18.9584 21.4882 18.8047 21.1173 18.5312 20.8438C18.2577 20.5703 17.8868 20.4167 17.5 20.4167ZM18.0542 16.1584C17.7902 16.0359 17.4956 15.9953 17.2084 16.0417L16.9459 16.1292L16.6834 16.2604L16.4646 16.4354C16.3259 16.5752 16.2169 16.7415 16.1443 16.9245C16.0716 17.1074 16.0367 17.3032 16.0417 17.5C16.0406 17.6919 16.0774 17.8822 16.15 18.0599C16.2225 18.2376 16.3295 18.3992 16.4646 18.5354C16.6033 18.6682 16.7669 18.7723 16.9459 18.8417C17.1189 18.9233 17.3087 18.9633 17.5 18.9584C17.692 18.9595 17.8822 18.9227 18.0599 18.8501C18.2376 18.7775 18.3992 18.6706 18.5355 18.5354C18.6706 18.3992 18.7775 18.2376 18.8501 18.0599C18.9227 17.8822 18.9595 17.6919 18.9584 17.5C18.9595 17.3081 18.9227 17.1178 18.8501 16.9402C18.7775 16.7625 18.6706 16.6009 18.5355 16.4646C18.3937 16.3358 18.2309 16.2322 18.0542 16.1584ZM29.1667 13.0375C29.1515 12.9035 29.1222 12.7716 29.0792 12.6438V12.5125C29.0091 12.3626 28.9156 12.2247 28.8021 12.1042L20.0521 3.35419C19.9316 3.24075 19.7937 3.14722 19.6438 3.0771H19.498C19.3562 3.00127 19.2038 2.9472 19.0459 2.91669H10.2084C9.04805 2.91669 7.93525 3.37762 7.11478 4.19809C6.29431 5.01857 5.83337 6.13136 5.83337 7.29169V27.7084C5.83337 28.8687 6.29431 29.9815 7.11478 30.8019C7.93525 31.6224 9.04805 32.0834 10.2084 32.0834H24.7917C25.952 32.0834 27.0648 31.6224 27.8853 30.8019C28.7058 29.9815 29.1667 28.8687 29.1667 27.7084V13.125C29.1667 13.125 29.1667 13.125 29.1667 13.0375ZM20.4167 7.8896L24.1938 11.6667H21.875C21.4883 11.6667 21.1173 11.513 20.8438 11.2396C20.5704 10.9661 20.4167 10.5951 20.4167 10.2084V7.8896ZM26.25 27.7084C26.25 28.0951 26.0964 28.4661 25.8229 28.7396C25.5494 29.013 25.1785 29.1667 24.7917 29.1667H10.2084C9.8216 29.1667 9.45067 29.013 9.17718 28.7396C8.90369 28.4661 8.75004 28.0951 8.75004 27.7084V7.29169C8.75004 6.90491 8.90369 6.53398 9.17718 6.26049C9.45067 5.987 9.8216 5.83335 10.2084 5.83335H17.5V10.2084C17.5 11.3687 17.961 12.4815 18.7814 13.3019C19.6019 14.1224 20.7147 14.5834 21.875 14.5834H26.25V27.7084Z" fill="white"/>
</g>
</svg>
