<svg width="35" height="35" viewBox="0 0 35 35" fill="none" xmlns="http://www.w3.org/2000/svg">
<g id="Communication / edit mail">
<path id="Vector" d="M20.4167 16.7854H23.9459C24.1378 16.7865 24.3281 16.7498 24.5058 16.6772C24.6835 16.6046 24.8451 16.4977 24.9813 16.3625L31.6605 9.68335C31.7972 9.54778 31.9057 9.38649 31.9797 9.20877C32.0538 9.03106 32.0919 8.84045 32.0919 8.64793C32.0919 8.45542 32.0538 8.2648 31.9797 8.08709C31.9057 7.90938 31.7972 7.74809 31.6605 7.61252L28.1313 4.08335C27.9958 3.94666 27.8345 3.83817 27.6568 3.76413C27.479 3.6901 27.2884 3.65198 27.0959 3.65198C26.9034 3.65198 26.7128 3.6901 26.5351 3.76413C26.3574 3.83817 26.1961 3.94666 26.0605 4.08335L19.3813 10.7625C19.1148 11.042 18.9638 11.4118 18.9584 11.7979V15.3271C18.9584 15.7139 19.1121 16.0848 19.3856 16.3583C19.659 16.6318 20.03 16.7854 20.4167 16.7854ZM21.8751 12.4104L27.0959 7.1896L28.5542 8.64793L23.3334 13.8688H21.8751V12.4104ZM30.6251 15.3271C30.2383 15.3271 29.8674 15.4807 29.5939 15.7542C29.3204 16.0277 29.1667 16.3987 29.1667 16.7854V26.9938C29.1667 27.3805 29.0131 27.7515 28.7396 28.025C28.4661 28.2985 28.0952 28.4521 27.7084 28.4521H7.29175C6.90497 28.4521 6.53404 28.2985 6.26055 28.025C5.98706 27.7515 5.83341 27.3805 5.83341 26.9938V12.9792L14.4084 21.5688C14.8154 21.981 15.3002 22.3084 15.8347 22.5318C16.3691 22.7552 16.9427 22.8703 17.522 22.8703C18.1013 22.8703 18.6748 22.7552 19.2093 22.5318C19.7437 22.3084 20.2285 21.981 20.6355 21.5688C20.9027 21.2962 21.0524 20.9297 21.0524 20.5479C21.0524 20.1662 20.9027 19.7997 20.6355 19.5271C20.4997 19.3882 20.3375 19.2778 20.1584 19.2025C19.9794 19.1271 19.7871 19.0883 19.5928 19.0883C19.3985 19.0883 19.2062 19.1271 19.0272 19.2025C18.8481 19.2778 18.6859 19.3882 18.5501 19.5271C18.2775 19.7943 17.911 19.944 17.5292 19.944C17.1475 19.944 16.781 19.7943 16.5084 19.5271L7.88966 10.9229H14.5834C14.9702 10.9229 15.3411 10.7693 15.6146 10.4958C15.8881 10.2223 16.0417 9.85137 16.0417 9.4646C16.0417 9.07783 15.8881 8.70689 15.6146 8.4334C15.3411 8.15991 14.9702 8.00627 14.5834 8.00627H7.29175C6.13143 8.00627 5.01863 8.4672 4.19816 9.28767C3.37768 10.1081 2.91675 11.2209 2.91675 12.3813V26.9646C2.91675 28.1249 3.37768 29.2377 4.19816 30.0582C5.01863 30.8787 6.13143 31.3396 7.29175 31.3396H27.7084C28.8687 31.3396 29.9815 30.8787 30.802 30.0582C31.6225 29.2377 32.0834 28.1249 32.0834 26.9646V16.7563C32.0834 16.3695 31.9298 15.9986 31.6563 15.7251C31.3828 15.4516 31.0119 15.2979 30.6251 15.2979V15.3271Z" fill="white"/>
</g>
</svg>
