<svg width="35" height="35" viewBox="0 0 35 35" fill="none" xmlns="http://www.w3.org/2000/svg">
<g id="Business / pie chart">
<path id="Vector" d="M17.5 2.91666C15.2656 2.91262 13.0603 3.42203 11.0541 4.40558C9.04784 5.38913 7.29446 6.82051 5.92923 8.58923C4.564 10.358 3.62345 12.4167 3.18016 14.6067C2.73687 16.7966 2.8027 19.0591 3.37257 21.2195C3.94245 23.3799 5.00112 25.3805 6.46689 27.0669C7.93265 28.7533 9.7663 30.0803 11.8263 30.9455C13.8863 31.8107 16.1176 32.191 18.3479 32.0571C20.5782 31.9231 22.7479 31.2785 24.6896 30.1729H24.7916H24.8646C27.6722 28.5746 29.8697 26.0892 31.112 23.1069C32.3543 20.1246 32.5711 16.8141 31.7284 13.6953C30.8857 10.5764 29.0311 7.82561 26.4559 5.87477C23.8807 3.92393 20.7305 2.88345 17.5 2.91666ZM18.9583 5.93542C21.525 6.2609 23.9107 7.43035 25.7402 9.25981C27.5696 11.0893 28.7391 13.475 29.0646 16.0417H18.9583V5.93542ZM17.5 29.1667C14.5461 29.1465 11.7099 28.0066 9.56364 25.9771C7.41738 23.9475 6.1209 21.1793 5.93583 18.2312C5.75076 15.2831 6.69089 12.3745 8.56649 10.0925C10.4421 7.81043 13.1135 6.32481 16.0416 5.93542V17.5C16.0474 17.6746 16.0819 17.847 16.1437 18.0104V18.1271V18.2292L21.9771 28.2479C20.5621 28.8535 19.0391 29.1661 17.5 29.1667ZM24.5437 26.775L20.0229 18.9583H29.0646C28.8682 20.4963 28.3673 21.9797 27.5911 23.3218C26.8148 24.6639 25.7789 25.8378 24.5437 26.775Z" fill="white"/>
</g>
</svg>
