<svg width="15" height="14" viewBox="0 0 15 14" fill="none" xmlns="http://www.w3.org/2000/svg">
<g id="Brands / instagram">
<path id="Vector" d="M7.5 5.55329C7.19344 5.55329 6.89376 5.63814 6.63887 5.7971C6.38397 5.95606 6.1853 6.182 6.06799 6.44634C5.95067 6.71069 5.91998 7.00156 5.97978 7.28219C6.03959 7.56282 6.18721 7.82059 6.40398 8.02291C6.62076 8.22523 6.89694 8.36301 7.19761 8.41883C7.49828 8.47465 7.80993 8.446 8.09316 8.33651C8.37638 8.22701 8.61846 8.04159 8.78878 7.80368C8.95909 7.56578 9.05 7.28608 9.05 6.99996C9.05 6.80998 9.00991 6.62186 8.93201 6.44634C8.85412 6.27083 8.73995 6.11135 8.59602 5.97701C8.45208 5.84268 8.28121 5.73612 8.09316 5.66341C7.9051 5.59071 7.70355 5.55329 7.5 5.55329V5.55329ZM13.7063 4.12413C13.703 3.67365 13.6141 3.22729 13.4438 2.80579C13.3183 2.49736 13.1242 2.21726 12.8743 1.98398C12.6243 1.7507 12.3242 1.56954 11.9938 1.45246C11.5421 1.29348 11.0639 1.21053 10.5813 1.20746C9.775 1.16663 9.5375 1.16663 7.5 1.16663C5.4625 1.16663 5.225 1.16663 4.41875 1.20746C3.9361 1.21053 3.45786 1.29348 3.00625 1.45246C2.67579 1.56954 2.37568 1.7507 2.12574 1.98398C1.8758 2.21726 1.6817 2.49736 1.55625 2.80579C1.38591 3.22729 1.29704 3.67365 1.29375 4.12413C1.25 4.87663 1.25 5.09829 1.25 6.99996C1.25 8.90163 1.25 9.12329 1.29375 9.87579C1.30048 10.3279 1.38923 10.7756 1.55625 11.2C1.68114 11.507 1.87508 11.7855 2.125 12.0166C2.37387 12.2513 2.67462 12.4325 3.00625 12.5475C3.45786 12.7064 3.9361 12.7894 4.41875 12.7925C5.225 12.8333 5.4625 12.8333 7.5 12.8333C9.5375 12.8333 9.775 12.8333 10.5813 12.7925C11.0639 12.7894 11.5421 12.7064 11.9938 12.5475C12.3254 12.4325 12.6261 12.2513 12.875 12.0166C13.1249 11.7855 13.3189 11.507 13.4438 11.2C13.6139 10.7764 13.7028 10.3281 13.7063 9.87579C13.75 9.12329 13.75 8.90163 13.75 6.99996C13.75 5.09829 13.75 4.87663 13.7063 4.12413V4.12413ZM12.1187 8.79079C12.0987 9.15077 12.0164 9.50535 11.875 9.84079C11.7537 10.1206 11.5733 10.3748 11.3446 10.5882C11.1159 10.8017 10.8436 10.97 10.5438 11.0833C10.1809 11.2079 9.79892 11.2768 9.4125 11.2875C8.91875 11.2875 8.7875 11.2875 7.5 11.2875C6.2125 11.2875 6.08125 11.2875 5.5875 11.2875C5.20108 11.2768 4.81906 11.2079 4.45625 11.0833C4.14631 10.9758 3.86642 10.8043 3.6375 10.5816C3.41104 10.3724 3.23615 10.1195 3.125 9.84079C2.99097 9.50253 2.91913 9.14556 2.9125 8.78496C2.9125 8.32413 2.9125 8.20163 2.9125 6.99996C2.9125 5.79829 2.9125 5.67579 2.9125 5.21496C2.91913 4.85436 2.99097 4.49739 3.125 4.15913C3.24018 3.86985 3.42392 3.60862 3.6625 3.39496C3.88771 3.18474 4.15829 3.02168 4.45625 2.91663C4.81906 2.79203 5.20108 2.72308 5.5875 2.71246V2.71246C6.08125 2.71246 6.2125 2.71246 7.5 2.71246C8.7875 2.71246 8.91875 2.71246 9.4125 2.71246C9.79892 2.72308 10.1809 2.79203 10.5438 2.91663C10.8537 3.02412 11.1336 3.19562 11.3625 3.41829C11.589 3.62756 11.7638 3.88037 11.875 4.15913C12.0085 4.49774 12.0824 4.8543 12.0938 5.21496C12.0938 5.67579 12.0938 5.79829 12.0938 6.99996C12.0938 8.20163 12.1375 8.32413 12.1187 8.78496V8.79079ZM11.1188 4.45079C11.0443 4.26237 10.927 4.09125 10.7749 3.94925C10.6227 3.80725 10.4394 3.69775 10.2375 3.62829C9.96029 3.53861 9.66834 3.49517 9.375 3.49996C8.8875 3.49996 8.75 3.49996 7.5 3.49996C6.25 3.49996 6.1125 3.49996 5.625 3.49996C5.33017 3.50265 5.03817 3.554 4.7625 3.65163C4.56371 3.71793 4.38231 3.82296 4.23036 3.95974C4.07842 4.09653 3.95941 4.26193 3.88125 4.44496C3.79049 4.70476 3.74614 4.97672 3.75 5.24996C3.75 5.70496 3.75 5.83329 3.75 6.99996C3.75 8.16663 3.75 8.29496 3.75 8.74996C3.7562 9.02482 3.81111 9.29683 3.9125 9.55496C3.98691 9.74338 4.10424 9.9145 4.25638 10.0565C4.40853 10.1985 4.59187 10.308 4.79375 10.3775C5.06042 10.469 5.34103 10.5202 5.625 10.5291V10.5291C6.1125 10.5291 6.25 10.5291 7.5 10.5291C8.75 10.5291 8.8875 10.5291 9.375 10.5291C9.66983 10.5264 9.96183 10.4751 10.2375 10.3775C10.4394 10.308 10.6227 10.1985 10.7749 10.0565C10.927 9.9145 11.0443 9.74338 11.1188 9.55496C11.2234 9.29767 11.2784 9.02514 11.2812 8.74996C11.2812 8.29496 11.2812 8.16663 11.2812 6.99996C11.2812 5.83329 11.2812 5.70496 11.2812 5.24996C11.2814 4.97451 11.2263 4.70146 11.1188 4.44496V4.45079ZM7.5 9.22829C7.18676 9.22829 6.8766 9.17061 6.58729 9.05856C6.29797 8.9465 6.03519 8.78227 5.81399 8.57528C5.59279 8.36828 5.41752 8.12258 5.29822 7.85226C5.17891 7.58194 5.11793 7.29231 5.11875 6.99996V6.99996C5.11875 6.55899 5.25894 6.12793 5.52155 5.76136C5.78417 5.39479 6.15742 5.10918 6.59404 4.9407C7.03067 4.77221 7.51103 4.72842 7.97433 4.81488C8.43763 4.90133 8.86303 5.11414 9.19668 5.42636C9.53033 5.73859 9.75722 6.13618 9.84863 6.56882C9.94005 7.00146 9.89188 7.44968 9.71021 7.85675C9.52855 8.26383 9.22157 8.61144 8.82812 8.85559C8.43468 9.09974 7.97247 9.22945 7.5 9.22829V9.22829ZM10 5.20913C9.86184 5.19548 9.73398 5.13459 9.64105 5.03819C9.54813 4.9418 9.49671 4.81671 9.49671 4.68704C9.49671 4.55737 9.54813 4.43229 9.64105 4.33589C9.73398 4.2395 9.86184 4.17861 10 4.16496V4.16496C10.1382 4.17861 10.266 4.2395 10.3589 4.33589C10.4519 4.43229 10.5033 4.55737 10.5033 4.68704C10.5033 4.81671 10.4519 4.9418 10.3589 5.03819C10.266 5.13459 10.1382 5.19548 10 5.20913Z" fill="#121212"/>
</g>
</svg>
