<svg width="14" height="14" viewBox="0 0 14 14" fill="none" xmlns="http://www.w3.org/2000/svg">
<g id="Brands / youtube">
<path id="Vector" d="M13.4167 5.66416C13.4456 4.82921 13.263 4.0005 12.8859 3.25499C12.63 2.94909 12.275 2.74265 11.8826 2.67166C10.2594 2.52438 8.62962 2.46402 7.00006 2.49082C5.37643 2.4628 3.75247 2.52122 2.13506 2.66582C1.81528 2.72399 1.51936 2.87398 1.28339 3.09749C0.75839 3.58166 0.700056 4.40999 0.641723 5.10999C0.557088 6.36857 0.557088 7.63141 0.641723 8.88999C0.658599 9.28398 0.717261 9.67506 0.816723 10.0567C0.887058 10.3513 1.02936 10.6239 1.23089 10.85C1.46846 11.0853 1.77128 11.2439 2.10006 11.305C3.35767 11.4602 4.62485 11.5246 5.89172 11.4975C7.93339 11.5267 9.72422 11.4975 11.8417 11.3342C12.1786 11.2768 12.4899 11.1181 12.7342 10.8792C12.8975 10.7158 13.0195 10.5158 13.0901 10.2958C13.2987 9.65568 13.4011 8.98572 13.3934 8.31249C13.4167 7.98582 13.4167 6.01416 13.4167 5.66416ZM5.68172 8.66249V5.05166L9.13506 6.86582C8.16672 7.40249 6.88922 8.00916 5.68172 8.66249Z" fill="#121212"/>
</g>
</svg>
